# Made in Blockbench 4.11.2
mtllib player.mtl

o cuboid
v 0.4375 0.75 0.1875
v 0.4375 0.75 -0.4375
v 0.4375 0 0.1875
v 0.4375 0 -0.4375
v -0.4375 0.75 0.1875
v -0.4375 0.75 -0.4375
v -0.4375 0 0.1875
v -0.4375 0 -0.4375
vt 0.390625 0.65625
vt 0.234375 0.65625
vt 0.234375 0.46875
vt 0.390625 0.46875
vt 0.15625 0.40625
vt 0.15625 0.59375
vt 0 0.59375
vt 0 0.40625
vt 0.234375 0.84375
vt 0.453125 0.84375
vt 0.453125 1
vt 0.234375 1
vt 0.453125 0.671875
vt 0.453125 0.828125
vt 0.234375 0.828125
vt 0.234375 0.671875
vt 0.21875 0.8125
vt 0.21875 1
vt 0 1
vt 0 0.8125
vt 0.21875 0.796875
vt 0 0.796875
vt 0 0.609375
vt 0.21875 0.609375
vn 1 0 0
vn -1 0 0
vn 0 1 0
vn 0 -1 0
vn 0 0 1
vn 0 0 -1
usemtl m_4598512d-2c05-cfd7-07c4-3cda2d5018be
f 2/1/1 1/2/1 3/3/1 4/4/1
f 7/5/2 5/6/2 6/7/2 8/8/2
f 5/9/3 1/10/3 2/11/3 6/12/3
f 4/13/4 3/14/4 7/15/4 8/16/4
f 3/17/5 1/18/5 5/19/5 7/20/5
f 6/21/6 2/22/6 4/23/6 8/24/6
o cuboid
v 0.375 0.625 0.4375
v 0.375 0.625 0.1875
v 0.375 0.125 0.4375
v 0.375 0.125 0.1875
v -0.375 0.625 0.4375
v -0.375 0.625 0.1875
v -0.375 0.125 0.4375
v -0.375 0.125 0.1875
vt 0.46875 0.515625
vt 0.40625 0.515625
vt 0.40625 0.390625
vt 0.46875 0.390625
vt 0.546875 0.390625
vt 0.546875 0.515625
vt 0.484375 0.515625
vt 0.484375 0.390625
vt 0.46875 0.796875
vt 0.65625 0.796875
vt 0.65625 0.859375
vt 0.46875 0.859375
vt 0.65625 0.71875
vt 0.65625 0.78125
vt 0.46875 0.78125
vt 0.46875 0.71875
vt 0.59375 0.53125
vt 0.59375 0.65625
vt 0.40625 0.65625
vt 0.40625 0.53125
vt 0.65625 1
vt 0.46875 1
vt 0.46875 0.875
vt 0.65625 0.875
vn 1 0 0
vn -1 0 0
vn 0 1 0
vn 0 -1 0
vn 0 0 1
vn 0 0 -1
usemtl m_4598512d-2c05-cfd7-07c4-3cda2d5018be
f 10/25/7 9/26/7 11/27/7 12/28/7
f 15/29/8 13/30/8 14/31/8 16/32/8
f 13/33/9 9/34/9 10/35/9 14/36/9
f 12/37/10 11/38/10 15/39/10 16/40/10
f 11/41/11 9/42/11 13/43/11 15/44/11
f 14/45/12 10/46/12 12/47/12 16/48/12